<mxfile host="app.diagrams.net" modified="2023-02-12T19:10:29.613Z" agent="5.0 (Macintosh; Intel Mac OS X 10_15_7) AppleWebKit/537.36 (KHTML, like Gecko) Chrome/109.0.0.0 Safari/537.36" etag="mX2jaEuLhmmA7FyOXlea" version="20.8.17" type="github">
  <diagram name="Page-1" id="OiAAreseT4Ou6ZYbAtUu">
    <mxGraphModel dx="1793" dy="2133" grid="1" gridSize="10" guides="1" tooltips="1" connect="1" arrows="1" fold="1" page="1" pageScale="1" pageWidth="827" pageHeight="1169" math="0" shadow="0">
      <root>
        <mxCell id="0" />
        <mxCell id="1" parent="0" />
        <mxCell id="Kl7tfWJofYw5UtfO86dM-1" value="User" style="shape=umlActor;verticalLabelPosition=bottom;verticalAlign=top;html=1;" vertex="1" parent="1">
          <mxGeometry x="80" y="200" width="30" height="60" as="geometry" />
        </mxCell>
        <mxCell id="Kl7tfWJofYw5UtfO86dM-2" value="Scooter" style="shape=umlActor;verticalLabelPosition=bottom;verticalAlign=top;html=1;" vertex="1" parent="1">
          <mxGeometry x="1110" y="200" width="30" height="60" as="geometry" />
        </mxCell>
        <mxCell id="Kl7tfWJofYw5UtfO86dM-3" value="" style="whiteSpace=wrap;html=1;verticalAlign=top;" vertex="1" parent="1">
          <mxGeometry x="165" y="-166" width="875" height="1506" as="geometry" />
        </mxCell>
        <mxCell id="Kl7tfWJofYw5UtfO86dM-5" value="ScooterApp" style="text;align=center;fontStyle=1;verticalAlign=middle;spacingLeft=3;spacingRight=3;strokeColor=none;rotatable=0;points=[[0,0.5],[1,0.5]];portConstraint=eastwest;" vertex="1" parent="1">
          <mxGeometry x="562.5" y="-200" width="80" height="26" as="geometry" />
        </mxCell>
        <mxCell id="Kl7tfWJofYw5UtfO86dM-6" value="Sign Up" style="ellipse;whiteSpace=wrap;html=1;" vertex="1" parent="1">
          <mxGeometry x="200" y="-80" width="140" height="70" as="geometry" />
        </mxCell>
        <mxCell id="Kl7tfWJofYw5UtfO86dM-7" value="Login" style="ellipse;whiteSpace=wrap;html=1;" vertex="1" parent="1">
          <mxGeometry x="200" y="80" width="140" height="70" as="geometry" />
        </mxCell>
        <mxCell id="Kl7tfWJofYw5UtfO86dM-13" value="Insert Payment Details" style="ellipse;whiteSpace=wrap;html=1;" vertex="1" parent="1">
          <mxGeometry x="200" y="1030" width="140" height="70" as="geometry" />
        </mxCell>
        <mxCell id="Kl7tfWJofYw5UtfO86dM-14" value="Locate nearby Stations" style="ellipse;whiteSpace=wrap;html=1;" vertex="1" parent="1">
          <mxGeometry x="200" y="195" width="140" height="70" as="geometry" />
        </mxCell>
        <mxCell id="Kl7tfWJofYw5UtfO86dM-15" value="Locate available Scooter" style="ellipse;whiteSpace=wrap;html=1;" vertex="1" parent="1">
          <mxGeometry x="400" y="195" width="140" height="70" as="geometry" />
        </mxCell>
        <mxCell id="Kl7tfWJofYw5UtfO86dM-16" value="Pay" style="ellipse;whiteSpace=wrap;html=1;" vertex="1" parent="1">
          <mxGeometry x="200" y="1140" width="140" height="70" as="geometry" />
        </mxCell>
        <mxCell id="Kl7tfWJofYw5UtfO86dM-18" value="Check out Scooter" style="ellipse;whiteSpace=wrap;html=1;" vertex="1" parent="1">
          <mxGeometry x="200" y="600" width="140" height="70" as="geometry" />
        </mxCell>
        <mxCell id="Kl7tfWJofYw5UtfO86dM-21" value="" style="endArrow=none;html=1;rounded=0;entryX=0;entryY=0.5;entryDx=0;entryDy=0;exitX=1;exitY=0.3333333333333333;exitDx=0;exitDy=0;exitPerimeter=0;" edge="1" parent="1" source="Kl7tfWJofYw5UtfO86dM-1" target="Kl7tfWJofYw5UtfO86dM-6">
          <mxGeometry width="50" height="50" relative="1" as="geometry">
            <mxPoint x="100" y="360" as="sourcePoint" />
            <mxPoint x="150" y="310" as="targetPoint" />
          </mxGeometry>
        </mxCell>
        <mxCell id="Kl7tfWJofYw5UtfO86dM-22" value="" style="endArrow=none;html=1;rounded=0;entryX=0;entryY=0.5;entryDx=0;entryDy=0;" edge="1" parent="1" target="Kl7tfWJofYw5UtfO86dM-7">
          <mxGeometry width="50" height="50" relative="1" as="geometry">
            <mxPoint x="110" y="220" as="sourcePoint" />
            <mxPoint x="210.00000000000006" y="135" as="targetPoint" />
          </mxGeometry>
        </mxCell>
        <mxCell id="Kl7tfWJofYw5UtfO86dM-23" value="" style="endArrow=none;html=1;rounded=0;entryX=0;entryY=0.5;entryDx=0;entryDy=0;" edge="1" parent="1" target="Kl7tfWJofYw5UtfO86dM-14">
          <mxGeometry width="50" height="50" relative="1" as="geometry">
            <mxPoint x="110" y="220" as="sourcePoint" />
            <mxPoint x="210.00000000000006" y="215" as="targetPoint" />
          </mxGeometry>
        </mxCell>
        <mxCell id="Kl7tfWJofYw5UtfO86dM-24" value="" style="endArrow=none;html=1;rounded=0;entryX=0;entryY=0.5;entryDx=0;entryDy=0;" edge="1" parent="1" target="Kl7tfWJofYw5UtfO86dM-13">
          <mxGeometry width="50" height="50" relative="1" as="geometry">
            <mxPoint x="110" y="220" as="sourcePoint" />
            <mxPoint x="210.00000000000006" y="295" as="targetPoint" />
          </mxGeometry>
        </mxCell>
        <mxCell id="Kl7tfWJofYw5UtfO86dM-25" value="" style="endArrow=none;html=1;rounded=0;entryX=0;entryY=0.5;entryDx=0;entryDy=0;exitX=1;exitY=0.3333333333333333;exitDx=0;exitDy=0;exitPerimeter=0;" edge="1" parent="1" source="Kl7tfWJofYw5UtfO86dM-1" target="Kl7tfWJofYw5UtfO86dM-18">
          <mxGeometry width="50" height="50" relative="1" as="geometry">
            <mxPoint x="119.99999999999994" y="230" as="sourcePoint" />
            <mxPoint x="210.00000000000006" y="375" as="targetPoint" />
          </mxGeometry>
        </mxCell>
        <mxCell id="Kl7tfWJofYw5UtfO86dM-26" value="" style="endArrow=none;html=1;rounded=0;entryX=0;entryY=0.5;entryDx=0;entryDy=0;" edge="1" parent="1" target="Kl7tfWJofYw5UtfO86dM-39">
          <mxGeometry width="50" height="50" relative="1" as="geometry">
            <mxPoint x="110" y="220" as="sourcePoint" />
            <mxPoint x="200" y="525" as="targetPoint" />
          </mxGeometry>
        </mxCell>
        <mxCell id="Kl7tfWJofYw5UtfO86dM-27" value="" style="endArrow=none;html=1;rounded=0;entryX=0;entryY=0.5;entryDx=0;entryDy=0;" edge="1" parent="1" target="Kl7tfWJofYw5UtfO86dM-16">
          <mxGeometry width="50" height="50" relative="1" as="geometry">
            <mxPoint x="110" y="220" as="sourcePoint" />
            <mxPoint x="210.00000000000006" y="535" as="targetPoint" />
          </mxGeometry>
        </mxCell>
        <mxCell id="Kl7tfWJofYw5UtfO86dM-28" value="" style="endArrow=none;html=1;rounded=0;entryX=0;entryY=0.3333333333333333;entryDx=0;entryDy=0;entryPerimeter=0;exitX=1;exitY=0.5;exitDx=0;exitDy=0;" edge="1" parent="1" source="Kl7tfWJofYw5UtfO86dM-53" target="Kl7tfWJofYw5UtfO86dM-2">
          <mxGeometry width="50" height="50" relative="1" as="geometry">
            <mxPoint x="119.99999999999994" y="230" as="sourcePoint" />
            <mxPoint x="210.00000000000006" y="615" as="targetPoint" />
          </mxGeometry>
        </mxCell>
        <mxCell id="Kl7tfWJofYw5UtfO86dM-31" value="Verify Payment Details" style="ellipse;whiteSpace=wrap;html=1;" vertex="1" parent="1">
          <mxGeometry x="532.5" y="1030" width="140" height="70" as="geometry" />
        </mxCell>
        <mxCell id="Kl7tfWJofYw5UtfO86dM-33" value="Release Scooter" style="ellipse;whiteSpace=wrap;html=1;" vertex="1" parent="1">
          <mxGeometry x="810" y="600" width="140" height="70" as="geometry" />
        </mxCell>
        <mxCell id="Kl7tfWJofYw5UtfO86dM-34" value="Make Scooter Unavailable" style="ellipse;whiteSpace=wrap;html=1;" vertex="1" parent="1">
          <mxGeometry x="532.5" y="520" width="140" height="70" as="geometry" />
        </mxCell>
        <mxCell id="Kl7tfWJofYw5UtfO86dM-35" value="Provide Rental Total" style="ellipse;whiteSpace=wrap;html=1;" vertex="1" parent="1">
          <mxGeometry x="532.5" y="850" width="140" height="70" as="geometry" />
        </mxCell>
        <mxCell id="Kl7tfWJofYw5UtfO86dM-36" value="Request Repair" style="ellipse;whiteSpace=wrap;html=1;" vertex="1" parent="1">
          <mxGeometry x="532.5" y="400" width="140" height="70" as="geometry" />
        </mxCell>
        <mxCell id="Kl7tfWJofYw5UtfO86dM-38" value="Output Broken Status" style="ellipse;whiteSpace=wrap;html=1;" vertex="1" parent="1">
          <mxGeometry x="810" y="400" width="140" height="70" as="geometry" />
        </mxCell>
        <mxCell id="Kl7tfWJofYw5UtfO86dM-39" value="Dock Scooter" style="ellipse;whiteSpace=wrap;html=1;" vertex="1" parent="1">
          <mxGeometry x="200" y="720" width="140" height="70" as="geometry" />
        </mxCell>
        <mxCell id="Kl7tfWJofYw5UtfO86dM-41" value="Charge" style="ellipse;whiteSpace=wrap;html=1;" vertex="1" parent="1">
          <mxGeometry x="810" y="-110" width="140" height="70" as="geometry" />
        </mxCell>
        <mxCell id="Kl7tfWJofYw5UtfO86dM-43" value="Verify Age Restriction" style="ellipse;whiteSpace=wrap;html=1;" vertex="1" parent="1">
          <mxGeometry x="360" y="-130" width="140" height="70" as="geometry" />
        </mxCell>
        <mxCell id="Kl7tfWJofYw5UtfO86dM-44" value="Set Login and Password" style="ellipse;whiteSpace=wrap;html=1;" vertex="1" parent="1">
          <mxGeometry x="360" y="-30" width="140" height="70" as="geometry" />
        </mxCell>
        <mxCell id="Kl7tfWJofYw5UtfO86dM-49" value="Log out" style="ellipse;whiteSpace=wrap;html=1;" vertex="1" parent="1">
          <mxGeometry x="200" y="1240" width="140" height="70" as="geometry" />
        </mxCell>
        <mxCell id="Kl7tfWJofYw5UtfO86dM-50" value="" style="endArrow=none;html=1;rounded=0;entryX=0;entryY=0.5;entryDx=0;entryDy=0;" edge="1" parent="1" target="Kl7tfWJofYw5UtfO86dM-49">
          <mxGeometry width="50" height="50" relative="1" as="geometry">
            <mxPoint x="110" y="220" as="sourcePoint" />
            <mxPoint x="210" y="615" as="targetPoint" />
          </mxGeometry>
        </mxCell>
        <mxCell id="Kl7tfWJofYw5UtfO86dM-51" value="Add to user data base" style="ellipse;whiteSpace=wrap;html=1;" vertex="1" parent="1">
          <mxGeometry x="532.5" y="-80" width="140" height="70" as="geometry" />
        </mxCell>
        <mxCell id="Kl7tfWJofYw5UtfO86dM-53" value="Input/Scan &lt;br&gt;Scooter Serial" style="ellipse;whiteSpace=wrap;html=1;" vertex="1" parent="1">
          <mxGeometry x="810" y="195" width="140" height="70" as="geometry" />
        </mxCell>
        <mxCell id="Kl7tfWJofYw5UtfO86dM-56" value="" style="endArrow=none;html=1;rounded=0;entryX=0;entryY=0.3333333333333333;entryDx=0;entryDy=0;entryPerimeter=0;exitX=1;exitY=0.5;exitDx=0;exitDy=0;" edge="1" parent="1" source="Kl7tfWJofYw5UtfO86dM-33" target="Kl7tfWJofYw5UtfO86dM-2">
          <mxGeometry width="50" height="50" relative="1" as="geometry">
            <mxPoint x="542.5" y="265" as="sourcePoint" />
            <mxPoint x="1120" y="230" as="targetPoint" />
          </mxGeometry>
        </mxCell>
        <mxCell id="Kl7tfWJofYw5UtfO86dM-59" value="" style="endArrow=none;html=1;rounded=0;exitX=1;exitY=0.5;exitDx=0;exitDy=0;entryX=0;entryY=0.3333333333333333;entryDx=0;entryDy=0;entryPerimeter=0;" edge="1" parent="1" source="Kl7tfWJofYw5UtfO86dM-38" target="Kl7tfWJofYw5UtfO86dM-2">
          <mxGeometry width="50" height="50" relative="1" as="geometry">
            <mxPoint x="930" y="385" as="sourcePoint" />
            <mxPoint x="1110" y="220" as="targetPoint" />
          </mxGeometry>
        </mxCell>
        <mxCell id="Kl7tfWJofYw5UtfO86dM-60" value="Register Docking Station" style="ellipse;whiteSpace=wrap;html=1;" vertex="1" parent="1">
          <mxGeometry x="810" y="720" width="140" height="70" as="geometry" />
        </mxCell>
        <mxCell id="Kl7tfWJofYw5UtfO86dM-61" value="" style="endArrow=none;html=1;rounded=0;entryX=0;entryY=0.3333333333333333;entryDx=0;entryDy=0;entryPerimeter=0;exitX=1;exitY=0.5;exitDx=0;exitDy=0;" edge="1" parent="1" source="Kl7tfWJofYw5UtfO86dM-60" target="Kl7tfWJofYw5UtfO86dM-2">
          <mxGeometry width="50" height="50" relative="1" as="geometry">
            <mxPoint x="930" y="385" as="sourcePoint" />
            <mxPoint x="1120" y="230" as="targetPoint" />
          </mxGeometry>
        </mxCell>
        <mxCell id="Kl7tfWJofYw5UtfO86dM-62" value="Confirm User in operation" style="ellipse;whiteSpace=wrap;html=1;" vertex="1" parent="1">
          <mxGeometry x="810" y="20" width="140" height="70" as="geometry" />
        </mxCell>
        <mxCell id="Kl7tfWJofYw5UtfO86dM-63" value="" style="endArrow=none;html=1;rounded=0;entryX=0;entryY=0.3333333333333333;entryDx=0;entryDy=0;entryPerimeter=0;exitX=1;exitY=0.5;exitDx=0;exitDy=0;" edge="1" parent="1" source="Kl7tfWJofYw5UtfO86dM-62" target="Kl7tfWJofYw5UtfO86dM-2">
          <mxGeometry width="50" height="50" relative="1" as="geometry">
            <mxPoint x="930" y="305" as="sourcePoint" />
            <mxPoint x="1120" y="230" as="targetPoint" />
          </mxGeometry>
        </mxCell>
        <mxCell id="Kl7tfWJofYw5UtfO86dM-65" value="" style="endArrow=none;html=1;rounded=0;entryX=0;entryY=0.5;entryDx=0;entryDy=0;" edge="1" parent="1" target="Kl7tfWJofYw5UtfO86dM-36">
          <mxGeometry width="50" height="50" relative="1" as="geometry">
            <mxPoint x="110" y="220" as="sourcePoint" />
            <mxPoint x="210" y="135" as="targetPoint" />
          </mxGeometry>
        </mxCell>
        <mxCell id="Kl7tfWJofYw5UtfO86dM-66" value="" style="endArrow=none;html=1;rounded=0;exitX=1;exitY=0.5;exitDx=0;exitDy=0;entryX=0;entryY=0.3333333333333333;entryDx=0;entryDy=0;entryPerimeter=0;" edge="1" parent="1" source="Kl7tfWJofYw5UtfO86dM-41" target="Kl7tfWJofYw5UtfO86dM-2">
          <mxGeometry width="50" height="50" relative="1" as="geometry">
            <mxPoint x="910" y="305" as="sourcePoint" />
            <mxPoint x="1100" y="220" as="targetPoint" />
          </mxGeometry>
        </mxCell>
        <mxCell id="Kl7tfWJofYw5UtfO86dM-68" value="" style="endArrow=classic;html=1;rounded=0;exitX=1;exitY=0.5;exitDx=0;exitDy=0;entryX=0;entryY=0.5;entryDx=0;entryDy=0;dashed=1;" edge="1" parent="1" source="Kl7tfWJofYw5UtfO86dM-39" target="Kl7tfWJofYw5UtfO86dM-60">
          <mxGeometry width="50" height="50" relative="1" as="geometry">
            <mxPoint x="820" y="480" as="sourcePoint" />
            <mxPoint x="870" y="430" as="targetPoint" />
          </mxGeometry>
        </mxCell>
        <mxCell id="Kl7tfWJofYw5UtfO86dM-70" value="" style="endArrow=classic;html=1;rounded=0;exitX=1;exitY=0.5;exitDx=0;exitDy=0;entryX=0;entryY=0.5;entryDx=0;entryDy=0;dashed=1;" edge="1" parent="1" source="Kl7tfWJofYw5UtfO86dM-18" target="Kl7tfWJofYw5UtfO86dM-33">
          <mxGeometry width="50" height="50" relative="1" as="geometry">
            <mxPoint x="350" y="535" as="sourcePoint" />
            <mxPoint x="770" y="305" as="targetPoint" />
          </mxGeometry>
        </mxCell>
        <mxCell id="Kl7tfWJofYw5UtfO86dM-71" value="" style="endArrow=classic;html=1;rounded=0;exitX=1;exitY=0.5;exitDx=0;exitDy=0;entryX=0;entryY=0.5;entryDx=0;entryDy=0;dashed=1;" edge="1" parent="1" source="Kl7tfWJofYw5UtfO86dM-43" target="Kl7tfWJofYw5UtfO86dM-51">
          <mxGeometry width="50" height="50" relative="1" as="geometry">
            <mxPoint x="350" y="455" as="sourcePoint" />
            <mxPoint x="770" y="385" as="targetPoint" />
          </mxGeometry>
        </mxCell>
        <mxCell id="Kl7tfWJofYw5UtfO86dM-72" value="" style="endArrow=classic;html=1;rounded=0;entryX=0;entryY=0.5;entryDx=0;entryDy=0;dashed=1;exitX=1;exitY=0.5;exitDx=0;exitDy=0;" edge="1" parent="1" source="Kl7tfWJofYw5UtfO86dM-6" target="Kl7tfWJofYw5UtfO86dM-43">
          <mxGeometry width="50" height="50" relative="1" as="geometry">
            <mxPoint x="510" y="-85" as="sourcePoint" />
            <mxPoint x="542.5" y="-85" as="targetPoint" />
          </mxGeometry>
        </mxCell>
        <mxCell id="Kl7tfWJofYw5UtfO86dM-73" value="" style="endArrow=classic;html=1;rounded=0;entryX=0;entryY=0.5;entryDx=0;entryDy=0;dashed=1;exitX=1;exitY=0.5;exitDx=0;exitDy=0;" edge="1" parent="1" source="Kl7tfWJofYw5UtfO86dM-6" target="Kl7tfWJofYw5UtfO86dM-44">
          <mxGeometry width="50" height="50" relative="1" as="geometry">
            <mxPoint x="350" y="-35" as="sourcePoint" />
            <mxPoint x="370" y="-85" as="targetPoint" />
          </mxGeometry>
        </mxCell>
        <mxCell id="Kl7tfWJofYw5UtfO86dM-74" value="" style="endArrow=classic;html=1;rounded=0;entryX=0;entryY=0.5;entryDx=0;entryDy=0;dashed=1;exitX=1;exitY=0.5;exitDx=0;exitDy=0;" edge="1" parent="1" source="Kl7tfWJofYw5UtfO86dM-44" target="Kl7tfWJofYw5UtfO86dM-51">
          <mxGeometry width="50" height="50" relative="1" as="geometry">
            <mxPoint x="350" y="-35" as="sourcePoint" />
            <mxPoint x="370" y="-85" as="targetPoint" />
          </mxGeometry>
        </mxCell>
        <mxCell id="Kl7tfWJofYw5UtfO86dM-75" value="" style="endArrow=classic;html=1;rounded=0;entryX=0;entryY=0.5;entryDx=0;entryDy=0;dashed=1;exitX=1;exitY=0.5;exitDx=0;exitDy=0;" edge="1" parent="1" source="Kl7tfWJofYw5UtfO86dM-15" target="Kl7tfWJofYw5UtfO86dM-53">
          <mxGeometry width="50" height="50" relative="1" as="geometry">
            <mxPoint x="510" y="15" as="sourcePoint" />
            <mxPoint x="542.5" y="-35" as="targetPoint" />
          </mxGeometry>
        </mxCell>
        <mxCell id="Kl7tfWJofYw5UtfO86dM-76" value="" style="endArrow=classic;html=1;rounded=0;dashed=1;exitX=1;exitY=0.5;exitDx=0;exitDy=0;" edge="1" parent="1" source="Kl7tfWJofYw5UtfO86dM-14" target="Kl7tfWJofYw5UtfO86dM-15">
          <mxGeometry width="50" height="50" relative="1" as="geometry">
            <mxPoint x="542.5" y="240" as="sourcePoint" />
            <mxPoint x="770" y="235" as="targetPoint" />
          </mxGeometry>
        </mxCell>
        <mxCell id="Kl7tfWJofYw5UtfO86dM-77" value="" style="endArrow=classic;html=1;rounded=0;exitX=0;exitY=0.5;exitDx=0;exitDy=0;entryX=1;entryY=0.5;entryDx=0;entryDy=0;dashed=1;" edge="1" parent="1" source="Kl7tfWJofYw5UtfO86dM-38" target="Kl7tfWJofYw5UtfO86dM-36">
          <mxGeometry width="50" height="50" relative="1" as="geometry">
            <mxPoint x="350" y="455" as="sourcePoint" />
            <mxPoint x="780" y="645" as="targetPoint" />
          </mxGeometry>
        </mxCell>
        <mxCell id="Kl7tfWJofYw5UtfO86dM-78" value="" style="endArrow=classic;html=1;rounded=0;exitX=0.5;exitY=1;exitDx=0;exitDy=0;entryX=0.5;entryY=0;entryDx=0;entryDy=0;dashed=1;" edge="1" parent="1" source="Kl7tfWJofYw5UtfO86dM-36" target="Kl7tfWJofYw5UtfO86dM-34">
          <mxGeometry width="50" height="50" relative="1" as="geometry">
            <mxPoint x="770" y="445" as="sourcePoint" />
            <mxPoint x="682.5" y="445" as="targetPoint" />
          </mxGeometry>
        </mxCell>
        <mxCell id="Kl7tfWJofYw5UtfO86dM-79" value="" style="endArrow=classic;html=1;rounded=0;exitX=1;exitY=0.5;exitDx=0;exitDy=0;dashed=1;" edge="1" parent="1" source="Kl7tfWJofYw5UtfO86dM-39" target="Kl7tfWJofYw5UtfO86dM-35">
          <mxGeometry width="50" height="50" relative="1" as="geometry">
            <mxPoint x="360" y="765" as="sourcePoint" />
            <mxPoint x="820" y="765" as="targetPoint" />
          </mxGeometry>
        </mxCell>
        <mxCell id="Kl7tfWJofYw5UtfO86dM-80" value="" style="endArrow=classic;html=1;rounded=0;exitX=0.5;exitY=1;exitDx=0;exitDy=0;dashed=1;entryX=0.8;entryY=0.118;entryDx=0;entryDy=0;entryPerimeter=0;" edge="1" parent="1" source="Kl7tfWJofYw5UtfO86dM-60" target="Kl7tfWJofYw5UtfO86dM-35">
          <mxGeometry width="50" height="50" relative="1" as="geometry">
            <mxPoint x="360" y="765" as="sourcePoint" />
            <mxPoint x="563.7321003491875" y="869.8917744372052" as="targetPoint" />
          </mxGeometry>
        </mxCell>
        <mxCell id="Kl7tfWJofYw5UtfO86dM-81" value="" style="endArrow=classic;html=1;rounded=0;exitX=1;exitY=0.5;exitDx=0;exitDy=0;dashed=1;entryX=0;entryY=0.5;entryDx=0;entryDy=0;" edge="1" parent="1" source="Kl7tfWJofYw5UtfO86dM-13" target="Kl7tfWJofYw5UtfO86dM-31">
          <mxGeometry width="50" height="50" relative="1" as="geometry">
            <mxPoint x="350" y="765" as="sourcePoint" />
            <mxPoint x="562.76626457466" y="870.3699595988792" as="targetPoint" />
          </mxGeometry>
        </mxCell>
        <mxCell id="Kl7tfWJofYw5UtfO86dM-82" value="" style="endArrow=classic;html=1;rounded=0;exitX=0.5;exitY=1;exitDx=0;exitDy=0;dashed=1;entryX=1;entryY=0;entryDx=0;entryDy=0;" edge="1" parent="1" source="Kl7tfWJofYw5UtfO86dM-35" target="Kl7tfWJofYw5UtfO86dM-13">
          <mxGeometry width="50" height="50" relative="1" as="geometry">
            <mxPoint x="350" y="1075" as="sourcePoint" />
            <mxPoint x="542.5" y="1075" as="targetPoint" />
          </mxGeometry>
        </mxCell>
        <mxCell id="Kl7tfWJofYw5UtfO86dM-83" value="" style="endArrow=classic;html=1;rounded=0;exitX=0.5;exitY=1;exitDx=0;exitDy=0;dashed=1;entryX=1;entryY=0;entryDx=0;entryDy=0;" edge="1" parent="1" source="Kl7tfWJofYw5UtfO86dM-31" target="Kl7tfWJofYw5UtfO86dM-16">
          <mxGeometry width="50" height="50" relative="1" as="geometry">
            <mxPoint x="612.5" y="930" as="sourcePoint" />
            <mxPoint x="329.49747468305804" y="1050.2512626584712" as="targetPoint" />
          </mxGeometry>
        </mxCell>
      </root>
    </mxGraphModel>
  </diagram>
</mxfile>
